<svg width="18" height="18" viewBox="0 0 18 18" fill="none" xmlns="http://www.w3.org/2000/svg">
<g clip-path="url(#clip0_79_85)">
<path d="M12.9726 6.15239C13.3031 6.48286 13.3031 7.01724 12.9726 7.34419L8.47261 11.8477C8.14214 12.1782 7.60776 12.1782 7.28081 11.8477L5.03081 9.59771C4.70034 9.26724 4.70034 8.73286 5.03081 8.40591C5.36128 8.07896 5.89565 8.07544 6.22261 8.40591L7.87495 10.0583L11.7773 6.15239C12.1078 5.82192 12.6421 5.82192 12.9691 6.15239H12.9726Z" fill="#2C3240"/>
<path opacity="0.4" d="M9 18C11.3869 18 13.6761 17.0518 15.364 15.364C17.0518 13.6761 18 11.3869 18 9C18 6.61305 17.0518 4.32387 15.364 2.63604C13.6761 0.948212 11.3869 0 9 0C6.61305 0 4.32387 0.948212 2.63604 2.63604C0.948212 4.32387 0 6.61305 0 9C0 11.3869 0.948212 13.6761 2.63604 15.364C4.32387 17.0518 6.61305 18 9 18ZM12.9727 7.34766L8.47266 11.8477C8.14219 12.1781 7.60781 12.1781 7.28086 11.8477L5.03086 9.59766C4.70039 9.26719 4.70039 8.73281 5.03086 8.40586C5.36133 8.07891 5.8957 8.07539 6.22266 8.40586L7.875 10.0582L11.7773 6.15234C12.1078 5.82188 12.6422 5.82188 12.9691 6.15234C13.2961 6.48281 13.2996 7.01719 12.9691 7.34414L12.9727 7.34766Z" fill="#2C3240"/>
</g>
<defs>
<clipPath id="clip0_79_85">
<rect width="18" height="18" fill="white"/>
</clipPath>
</defs>
</svg>
