<svg width="40" height="40" viewBox="0 0 40 40" fill="none" xmlns="http://www.w3.org/2000/svg">
<path d="M0.5 5C0.5 2.51472 2.51472 0.5 5 0.5H35C37.4853 0.5 39.5 2.51472 39.5 5V35C39.5 37.4853 37.4853 39.5 35 39.5H5C2.51472 39.5 0.5 37.4853 0.5 35V5Z" fill="#2C3240" fill-opacity="0.05" stroke="#2C3240"/>
<g clip-path="url(#clip0_90_5)">
<path d="M15.4348 21.0547C15.6527 20.9738 15.8496 20.8332 15.9621 20.6258L17.3684 18.098C17.8746 17.1875 18.8344 16.6215 19.875 16.6215C20.9156 16.6215 21.8754 17.1875 22.3816 18.098L23.7879 20.6258C23.9004 20.8297 24.0973 20.9738 24.3152 21.0547C25.6617 21.5469 26.625 22.8406 26.625 24.3594C26.625 26.3 25.05 27.875 23.1094 27.875C22.3641 27.875 21.675 27.6429 21.109 27.2492C20.4973 26.8273 19.2527 26.8273 18.6445 27.2492C18.075 27.6429 17.3859 27.875 16.6406 27.875C14.7 27.875 13.125 26.3 13.125 24.3594C13.125 22.8406 14.0883 21.5469 15.4348 21.0547Z" fill="#2C3240"/>
<path opacity="0.4" d="M17.0625 15.5C17.5101 15.5 17.9393 15.3222 18.2557 15.0057C18.5722 14.6893 18.75 14.2601 18.75 13.8125C18.75 13.3649 18.5722 12.9357 18.2557 12.6193C17.9393 12.3028 17.5101 12.125 17.0625 12.125C16.6149 12.125 16.1857 12.3028 15.8693 12.6193C15.5528 12.9357 15.375 13.3649 15.375 13.8125C15.375 14.2601 15.5528 14.6893 15.8693 15.0057C16.1857 15.3222 16.6149 15.5 17.0625 15.5ZM22.6875 15.5C23.1351 15.5 23.5643 15.3222 23.8807 15.0057C24.1972 14.6893 24.375 14.2601 24.375 13.8125C24.375 13.3649 24.1972 12.9357 23.8807 12.6193C23.5643 12.3028 23.1351 12.125 22.6875 12.125C22.2399 12.125 21.8107 12.3028 21.4943 12.6193C21.1778 12.9357 21 13.3649 21 13.8125C21 14.2601 21.1778 14.6893 21.4943 15.0057C21.8107 15.3222 22.2399 15.5 22.6875 15.5ZM27.75 17.75C27.75 17.5284 27.7064 17.309 27.6215 17.1042C27.5367 16.8995 27.4124 16.7135 27.2557 16.5568C27.099 16.4001 26.913 16.2758 26.7083 16.191C26.5035 16.1061 26.2841 16.0625 26.0625 16.0625C25.8409 16.0625 25.6215 16.1061 25.4167 16.191C25.212 16.2758 25.026 16.4001 24.8693 16.5568C24.7126 16.7135 24.5883 16.8995 24.5035 17.1042C24.4186 17.309 24.375 17.5284 24.375 17.75C24.375 17.9716 24.4186 18.191 24.5035 18.3958C24.5883 18.6005 24.7126 18.7865 24.8693 18.9432C25.026 19.0999 25.212 19.2242 25.4167 19.309C25.6215 19.3939 25.8409 19.4375 26.0625 19.4375C26.2841 19.4375 26.5035 19.3939 26.7083 19.309C26.913 19.2242 27.099 19.0999 27.2557 18.9432C27.4124 18.7865 27.5367 18.6005 27.6215 18.3958C27.7064 18.191 27.75 17.9716 27.75 17.75ZM13.6875 19.4375C14.1351 19.4375 14.5643 19.2597 14.8807 18.9432C15.1972 18.6268 15.375 18.1976 15.375 17.75C15.375 17.3024 15.1972 16.8732 14.8807 16.5568C14.5643 16.2403 14.1351 16.0625 13.6875 16.0625C13.2399 16.0625 12.8107 16.2403 12.4943 16.5568C12.1778 16.8732 12 17.3024 12 17.75C12 18.1976 12.1778 18.6268 12.4943 18.9432C12.8107 19.2597 13.2399 19.4375 13.6875 19.4375Z" fill="#2C3240"/>
</g>
<defs>
<clipPath id="clip0_90_5">
<rect width="15.75" height="18" fill="white" transform="translate(12 11)"/>
</clipPath>
</defs>
</svg>
