<svg width="40" height="40" viewBox="0 0 40 40" fill="none" xmlns="http://www.w3.org/2000/svg">
<path d="M0.5 5C0.5 2.51472 2.51472 0.5 5 0.5H35C37.4853 0.5 39.5 2.51472 39.5 5V35C39.5 37.4853 37.4853 39.5 35 39.5H5C2.51472 39.5 0.5 37.4853 0.5 35V5Z" fill="#2C3240" fill-opacity="0.05" stroke="#2C3240"/>
<g clip-path="url(#clip0_79_163)">
<path d="M21.125 14.375C21.125 13.7527 21.6277 13.25 22.25 13.25C22.8723 13.25 23.375 13.7527 23.375 14.375C23.375 14.9973 23.8777 15.5 24.5 15.5C25.1223 15.5 25.625 14.9973 25.625 14.375C25.625 12.5117 24.1133 11 22.25 11C20.3867 11 18.875 12.5117 18.875 14.375V21.125H21.125V14.375ZM12.9688 18.3125C12.5012 18.3125 12.125 18.6887 12.125 19.1562C12.125 19.6238 12.5012 20 12.9688 20H14.6562C14.8109 20 14.9375 20.1266 14.9375 20.2812V21.125H16.625V20.2812C16.625 19.1949 15.7426 18.3125 14.6562 18.3125H12.9688ZM25.0625 20.2812C25.0625 20.1266 25.1891 20 25.3438 20H27.3125C27.7801 20 28.1562 19.6238 28.1562 19.1562C28.1562 18.6887 27.7801 18.3125 27.3125 18.3125H25.3438C24.2574 18.3125 23.375 19.1949 23.375 20.2812V21.125H25.0625V20.2812Z" fill="#2C3240"/>
<path opacity="0.4" d="M12.125 21.125C11.5027 21.125 11 21.6277 11 22.25C11 22.8723 11.5027 23.375 12.125 23.375H27.875C28.4973 23.375 29 22.8723 29 22.25C29 21.6277 28.4973 21.125 27.875 21.125H12.125ZM27.875 24.5H12.125V25.625C12.125 27.4883 13.6367 29 15.5 29H24.5C26.3633 29 27.875 27.4883 27.875 25.625V24.5Z" fill="#2C3240"/>
</g>
<defs>
<clipPath id="clip0_79_163">
<rect width="18" height="18" fill="white" transform="translate(11 11)"/>
</clipPath>
</defs>
</svg>
