<svg width="40" height="40" viewBox="0 0 40 40" fill="none" xmlns="http://www.w3.org/2000/svg">
<path d="M0.5 5C0.5 2.51472 2.51472 0.5 5 0.5H35C37.4853 0.5 39.5 2.51472 39.5 5V35C39.5 37.4853 37.4853 39.5 35 39.5H5C2.51472 39.5 0.5 37.4853 0.5 35V5Z" fill="#2C3240" fill-opacity="0.05" stroke="#2C3240"/>
<path d="M14.5121 14.375C13.816 14.375 13.25 14.941 13.25 15.6371V26.75C13.25 27.3723 12.7473 27.875 12.125 27.875C11.5027 27.875 11 27.3723 11 26.75V15.6371C11 13.6965 12.5715 12.125 14.5121 12.125C15.4437 12.125 16.3367 12.4941 16.9941 13.1551L17.5637 13.7246C18.9312 12.9863 20.6398 13.1129 21.8879 14.1078L21.9336 14.0586C22.2641 13.7281 22.7984 13.7281 23.1254 14.0586C23.4523 14.3891 23.4559 14.9234 23.1254 15.2504L17.5039 20.8789C17.1734 21.2094 16.6391 21.2094 16.3121 20.8789C15.9852 20.5484 15.9816 20.0141 16.3121 19.6871L16.3578 19.6414C15.3629 18.3934 15.2363 16.6813 15.9746 15.3172L15.4051 14.7477C15.166 14.5086 14.8461 14.375 14.5121 14.375Z" fill="#2C3240"/>
<path opacity="0.4" d="M24.5 18.875C24.7984 18.875 25.0845 18.7565 25.2955 18.5455C25.5065 18.3345 25.625 18.0484 25.625 17.75C25.625 17.4516 25.5065 17.1655 25.2955 16.9545C25.0845 16.7435 24.7984 16.625 24.5 16.625C24.2016 16.625 23.9155 16.7435 23.7045 16.9545C23.4935 17.1655 23.375 17.4516 23.375 17.75C23.375 18.0484 23.4935 18.3345 23.7045 18.5455C23.9155 18.7565 24.2016 18.875 24.5 18.875ZM22.25 21.125C22.5484 21.125 22.8345 21.0065 23.0455 20.7955C23.2565 20.5845 23.375 20.2984 23.375 20C23.375 19.7016 23.2565 19.4155 23.0455 19.2045C22.8345 18.9935 22.5484 18.875 22.25 18.875C21.9516 18.875 21.6655 18.9935 21.4545 19.2045C21.2435 19.4155 21.125 19.7016 21.125 20C21.125 20.2984 21.2435 20.5845 21.4545 20.7955C21.6655 21.0065 21.9516 21.125 22.25 21.125ZM21.125 22.25C21.125 21.9516 21.0065 21.6655 20.7955 21.4545C20.5845 21.2435 20.2984 21.125 20 21.125C19.7016 21.125 19.4155 21.2435 19.2045 21.4545C18.9935 21.6655 18.875 21.9516 18.875 22.25C18.875 22.5484 18.9935 22.8345 19.2045 23.0455C19.4155 23.2565 19.7016 23.375 20 23.375C20.2984 23.375 20.5845 23.2565 20.7955 23.0455C21.0065 22.8345 21.125 22.5484 21.125 22.25ZM22.25 25.625C22.25 25.3266 22.1315 25.0405 21.9205 24.8295C21.7095 24.6185 21.4234 24.5 21.125 24.5C20.8266 24.5 20.5405 24.6185 20.3295 24.8295C20.1185 25.0405 20 25.3266 20 25.625C20 25.9234 20.1185 26.2095 20.3295 26.4205C20.5405 26.6315 20.8266 26.75 21.125 26.75C21.4234 26.75 21.7095 26.6315 21.9205 26.4205C22.1315 26.2095 22.25 25.9234 22.25 25.625ZM24.5 23.375C24.5 23.0766 24.3815 22.7905 24.1705 22.5795C23.9595 22.3685 23.6734 22.25 23.375 22.25C23.0766 22.25 22.7905 22.3685 22.5795 22.5795C22.3685 22.7905 22.25 23.0766 22.25 23.375C22.25 23.6734 22.3685 23.9595 22.5795 24.1705C22.7905 24.3815 23.0766 24.5 23.375 24.5C23.6734 24.5 23.9595 24.3815 24.1705 24.1705C24.3815 23.9595 24.5 23.6734 24.5 23.375ZM26.75 21.125C26.75 20.8266 26.6315 20.5405 26.4205 20.3295C26.2095 20.1185 25.9234 20 25.625 20C25.3266 20 25.0405 20.1185 24.8295 20.3295C24.6185 20.5405 24.5 20.8266 24.5 21.125C24.5 21.4234 24.6185 21.7095 24.8295 21.9205C25.0405 22.1315 25.3266 22.25 25.625 22.25C25.9234 22.25 26.2095 22.1315 26.4205 21.9205C26.6315 21.7095 26.75 21.4234 26.75 21.125ZM27.875 20C28.1734 20 28.4595 19.8815 28.6705 19.6705C28.8815 19.4595 29 19.1734 29 18.875C29 18.5766 28.8815 18.2905 28.6705 18.0795C28.4595 17.8685 28.1734 17.75 27.875 17.75C27.5766 17.75 27.2905 17.8685 27.0795 18.0795C26.8685 18.2905 26.75 18.5766 26.75 18.875C26.75 19.1734 26.8685 19.4595 27.0795 19.6705C27.2905 19.8815 27.5766 20 27.875 20Z" fill="#2C3240"/>
</svg>
