<svg width="40" height="40" viewBox="0 0 40 40" fill="none" xmlns="http://www.w3.org/2000/svg">
<path d="M0.5 5C0.5 2.51472 2.51472 0.5 5 0.5H35C37.4853 0.5 39.5 2.51472 39.5 5V35C39.5 37.4853 37.4853 39.5 35 39.5H5C2.51472 39.5 0.5 37.4853 0.5 35V5Z" fill="#2C3240" fill-opacity="0.05" stroke="#2C3240"/>
<path d="M12.125 13.8125C12.125 12.8809 12.8809 12.125 13.8125 12.125H26.1875C27.1191 12.125 27.875 12.8809 27.875 13.8125V19.1773C27.5445 18.9875 27.1613 18.875 26.75 18.875H26.1875V16.625C26.1875 16.0027 25.6848 15.5 25.0625 15.5H21.6875C21.0652 15.5 20.5625 16.0027 20.5625 16.625V18.875H19.4375V16.625C19.4375 16.0027 18.9348 15.5 18.3125 15.5H14.9375C14.3152 15.5 13.8125 16.0027 13.8125 16.625V18.875H13.25C12.8387 18.875 12.4555 18.984 12.125 19.1773V13.8125ZM12.125 23.375H27.875H29V24.5V26.75C29 27.3723 28.4973 27.875 27.875 27.875C27.2527 27.875 26.75 27.3723 26.75 26.75V25.625H13.25V26.75C13.25 27.3723 12.7473 27.875 12.125 27.875C11.5027 27.875 11 27.3723 11 26.75V24.5V23.375H12.125Z" fill="#2C3240"/>
<path opacity="0.4" d="M11 21.125C11 19.884 12.009 18.875 13.25 18.875H26.75C27.991 18.875 29 19.884 29 21.125V22.25V23.375H27.875H12.125H11V22.25V21.125Z" fill="#2C3240"/>
</svg>
