<svg width="40" height="40" viewBox="0 0 40 40" fill="none" xmlns="http://www.w3.org/2000/svg">
<path d="M0.5 5C0.5 2.51472 2.51472 0.5 5 0.5H35C37.4853 0.5 39.5 2.51472 39.5 5V35C39.5 37.4853 37.4853 39.5 35 39.5H5C2.51472 39.5 0.5 37.4853 0.5 35V5Z" fill="#2C3240" fill-opacity="0.05" stroke="#2C3240"/>
<g clip-path="url(#clip0_90_4)">
<path opacity="0.4" d="M12 17.75V22.25H14.25V17.75H12ZM25.5 17.75V22.25H27.75V17.75H25.5ZM17.625 27.875H22.125V25.625H17.625V27.875ZM17.625 14.375H22.125V12.125H17.625V14.375Z" fill="#2C3240"/>
<path d="M15.375 12.125H16.5V14.375H15.375C14.7527 14.375 14.25 14.8777 14.25 15.5V16.625H12V15.5C12 13.6367 13.5117 12.125 15.375 12.125ZM15.375 25.625H16.5V27.875H15.375C13.5117 27.875 12 26.3633 12 24.5V23.375H14.25V24.5C14.25 25.1223 14.7527 25.625 15.375 25.625ZM24.375 27.875H23.25V25.625H24.375C24.9973 25.625 25.5 25.1223 25.5 24.5V23.375H27.75V24.5C27.75 26.3633 26.2383 27.875 24.375 27.875ZM27.75 16.625H25.5V15.5C25.5 14.8777 24.9973 14.375 24.375 14.375H23.25V12.125H24.375C26.2383 12.125 27.75 13.6367 27.75 15.5V16.625Z" fill="#2C3240"/>
</g>
<defs>
<clipPath id="clip0_90_4">
<rect width="15.75" height="18" fill="white" transform="translate(12 11)"/>
</clipPath>
</defs>
</svg>
