<svg width="40" height="40" viewBox="0 0 40 40" fill="none" xmlns="http://www.w3.org/2000/svg">
<path d="M0.5 5C0.5 2.51472 2.51472 0.5 5 0.5H35C37.4853 0.5 39.5 2.51472 39.5 5V35C39.5 37.4853 37.4853 39.5 35 39.5H5C2.51472 39.5 0.5 37.4853 0.5 35V5Z" fill="#2C3240" fill-opacity="0.05" stroke="#2C3240"/>
<g clip-path="url(#clip0_90_3)">
<path d="M15.8781 15.1273C16.0363 14.6773 16.4617 14.375 16.9398 14.375H23.3102C23.7883 14.375 24.2137 14.6773 24.3719 15.1273L25.2895 17.75H14.9605L15.8781 15.1273ZM11.125 18.875H11.4273C11.2375 19.2055 11.125 19.5887 11.125 20V25.0625H29.125V20C29.125 19.5887 29.016 19.2055 28.8227 18.875H29.125C29.7473 18.875 30.25 18.3723 30.25 17.75C30.25 17.1277 29.7473 16.625 29.125 16.625H27.2793L26.4953 14.3855C26.0207 13.032 24.7445 12.125 23.3102 12.125H16.9398C15.5055 12.125 14.2293 13.032 13.7547 14.3855L12.9707 16.625H11.125C10.5027 16.625 10 17.1277 10 17.75C10 18.3723 10.5027 18.875 11.125 18.875ZM13.375 21.125C13.375 20.8266 13.4935 20.5405 13.7045 20.3295C13.9155 20.1185 14.2016 20 14.5 20C14.7984 20 15.0845 20.1185 15.2955 20.3295C15.5065 20.5405 15.625 20.8266 15.625 21.125C15.625 21.4234 15.5065 21.7095 15.2955 21.9205C15.0845 22.1315 14.7984 22.25 14.5 22.25C14.2016 22.25 13.9155 22.1315 13.7045 21.9205C13.4935 21.7095 13.375 21.4234 13.375 21.125ZM25.75 20C26.0484 20 26.3345 20.1185 26.5455 20.3295C26.7565 20.5405 26.875 20.8266 26.875 21.125C26.875 21.4234 26.7565 21.7095 26.5455 21.9205C26.3345 22.1315 26.0484 22.25 25.75 22.25C25.4516 22.25 25.1655 22.1315 24.9545 21.9205C24.7435 21.7095 24.625 21.4234 24.625 21.125C24.625 20.8266 24.7435 20.5405 24.9545 20.3295C25.1655 20.1185 25.4516 20 25.75 20Z" fill="#2C3240"/>
<path opacity="0.4" d="M16.9398 14.375C16.4617 14.375 16.0363 14.6773 15.8781 15.1273L14.9605 17.75H25.2895L24.3719 15.1273C24.2137 14.6773 23.7883 14.375 23.3102 14.375H16.9398ZM11.125 25.0625V26.75C11.125 27.3723 11.6277 27.875 12.25 27.875H13.375C13.9973 27.875 14.5 27.3723 14.5 26.75V25.0625H11.125ZM29.125 25.0625H25.75V26.75C25.75 27.3723 26.2527 27.875 26.875 27.875H28C28.6223 27.875 29.125 27.3723 29.125 26.75V25.0625Z" fill="#2C3240"/>
</g>
<defs>
<clipPath id="clip0_90_3">
<rect width="20.25" height="18" fill="white" transform="translate(10 11)"/>
</clipPath>
</defs>
</svg>
