<svg width="24" height="24" viewBox="0 0 24 24" fill="none" xmlns="http://www.w3.org/2000/svg">
<path d="M20.4457 20.4466H16.8901V14.8785C16.8901 13.5506 16.8664 11.8419 15.0407 11.8419C13.189 11.8419 12.9052 13.2881 12.9052 14.7827V20.4466H9.3508V8.99578H12.7645V10.5602H12.8118C13.5083 9.37061 14.8019 8.65996 16.1794 8.71081C19.7835 8.71081 20.4469 11.0816 20.4469 14.1643L20.4457 20.4466ZM5.33875 7.43021C4.19887 7.43021 3.27538 6.50672 3.27538 5.36684C3.27538 4.22696 4.19887 3.30347 5.33875 3.30347C6.47863 3.30347 7.40213 4.22696 7.40213 5.36684C7.40213 6.50672 6.47863 7.43021 5.33875 7.43021ZM7.11597 20.4466H3.5568V8.99578H7.11597V20.4466ZM22.2182 0.00207638H1.77012C0.804065 -0.00856565 0.0118245 0.765938 0 1.732V22.264C0.0118245 23.2313 0.804065 24.0058 1.77012 23.9951H22.2182C23.1866 24.007 23.9824 23.2325 23.9954 22.264V1.73082C23.9812 0.76239 23.1854 -0.012113 22.2182 0.00089388" fill="white"/>
</svg>
