<svg width="14" height="18" viewBox="0 0 14 18" fill="none" xmlns="http://www.w3.org/2000/svg">
<g clip-path="url(#clip0_79_270)">
<path d="M6.75 5.0625C6.30245 5.0625 5.87322 5.24029 5.55676 5.55676C5.24029 5.87322 5.0625 6.30245 5.0625 6.75C5.0625 7.19755 5.24029 7.62678 5.55676 7.94324C5.87322 8.25971 6.30245 8.4375 6.75 8.4375C7.19755 8.4375 7.62678 8.25971 7.94324 7.94324C8.25971 7.62678 8.4375 7.19755 8.4375 6.75C8.4375 6.30245 8.25971 5.87322 7.94324 5.55676C7.62678 5.24029 7.19755 5.0625 6.75 5.0625Z" fill="#2C3240"/>
<path opacity="0.4" d="M7.5832 17.55C9.38672 15.293 13.5 9.82266 13.5 6.75C13.5 3.02344 10.4766 0 6.75 0C3.02344 0 0 3.02344 0 6.75C0 9.82266 4.11328 15.293 5.9168 17.55C6.34922 18.0879 7.15078 18.0879 7.5832 17.55ZM6.75 3.9375C7.49592 3.9375 8.21129 4.23382 8.73874 4.76126C9.26618 5.28871 9.5625 6.00408 9.5625 6.75C9.5625 7.49592 9.26618 8.21129 8.73874 8.73874C8.21129 9.26618 7.49592 9.5625 6.75 9.5625C6.00408 9.5625 5.28871 9.26618 4.76126 8.73874C4.23382 8.21129 3.9375 7.49592 3.9375 6.75C3.9375 6.00408 4.23382 5.28871 4.76126 4.76126C5.28871 4.23382 6.00408 3.9375 6.75 3.9375Z" fill="#2C3240"/>
</g>
<defs>
<clipPath id="clip0_79_270">
<rect width="13.5" height="18" fill="white"/>
</clipPath>
</defs>
</svg>
