<svg width="14" height="14" viewBox="0 0 14 14" fill="none" xmlns="http://www.w3.org/2000/svg">
<g clip-path="url(#clip0_79_303)">
<path d="M12.5344 14C12.2828 14 12.0334 13.9015 11.8475 13.7047L6.99999 8.58155L2.15468 13.7047C1.79593 14.0853 1.19655 14.1006 0.818115 13.7419C0.43749 13.3831 0.41999 12.7837 0.77874 12.4031L6.31312 6.55374C6.49249 6.36561 6.73968 6.25842 6.99999 6.25842C7.2603 6.25842 7.50749 6.36561 7.68686 6.55374L13.2212 12.4031C13.58 12.7837 13.5647 13.3809 13.1841 13.7397C13.0003 13.9147 12.7662 14 12.5344 14Z" fill="white"/>
<path d="M12.5344 7.74156C12.2828 7.74156 12.0334 7.64313 11.8475 7.44625L6.99999 2.32312L2.15468 7.44625C1.79593 7.82688 1.19655 7.84219 0.818115 7.48344C0.43749 7.12469 0.41999 6.52531 0.77874 6.14469L6.31312 0.295312C6.49249 0.107188 6.73968 0 6.99999 0C7.2603 0 7.50749 0.107188 7.68686 0.295312L13.2212 6.14469C13.58 6.52531 13.5647 7.1225 13.1841 7.48125C13.0003 7.65625 12.7662 7.74156 12.5344 7.74156Z" fill="white"/>
</g>
<defs>
<clipPath id="clip0_79_303">
<rect width="14" height="14" fill="white"/>
</clipPath>
</defs>
</svg>
