<svg width="64" height="64" viewBox="0 0 64 64" fill="none" xmlns="http://www.w3.org/2000/svg">
<g clip-path="url(#clip0_353_3)">
<path fill-rule="evenodd" clip-rule="evenodd" d="M39.8268 37.5222C39.4968 38.4482 37.9128 39.2922 37.1508 39.4062C36.4688 39.5082 35.6048 39.5502 34.6548 39.2502C34.0788 39.0662 33.3408 38.8222 32.3968 38.4142C28.4208 36.6982 25.8228 32.6962 25.6248 32.4322C25.4268 32.1682 24.0068 30.2842 24.0068 28.3342C24.0068 26.3842 25.0308 25.4242 25.3948 25.0282C25.7568 24.6322 26.1868 24.5322 26.4508 24.5322C26.7148 24.5322 26.9788 24.5342 27.2108 24.5462C27.4548 24.5582 27.7808 24.4542 28.1028 25.2262C28.4328 26.0202 29.2248 27.9702 29.3248 28.1682C29.4228 28.3662 29.4888 28.5982 29.3568 28.8622C29.2248 29.1262 29.1588 29.2922 28.9608 29.5242C28.7628 29.7542 28.5448 30.0402 28.3668 30.2182C28.1688 30.4142 27.9608 30.6302 28.1928 31.0262C28.4248 31.4222 29.2188 32.7202 30.3968 33.7702C31.9108 35.1202 33.1888 35.5382 33.5848 35.7382C33.9808 35.9362 34.2128 35.9022 34.4428 35.6382C34.6748 35.3742 35.4348 34.4822 35.6988 34.0842C35.9628 33.6882 36.2268 33.7542 36.5908 33.8862C36.9528 34.0182 38.9028 34.9762 39.2988 35.1762C39.6948 35.3742 39.9588 35.4722 40.0588 35.6382C40.1568 35.8042 40.1568 36.5962 39.8268 37.5222ZM32.0728 18.6782C24.8008 18.6782 18.8848 24.5902 18.8828 31.8562C18.8828 34.3462 19.5788 36.7722 20.8988 38.8702L21.2128 39.3682L19.8808 44.2322L24.8708 42.9242L25.3508 43.2082C27.3748 44.4102 29.6948 45.0462 32.0608 45.0462H32.0668C39.3328 45.0462 45.2468 39.1342 45.2508 31.8662C45.2508 28.3442 43.8828 25.0342 41.3928 22.5422C38.9028 20.0522 35.5928 18.6782 32.0728 18.6782Z" fill="#67D449"/>
<path fill-rule="evenodd" clip-rule="evenodd" d="M32.066 47.724H32.06C29.404 47.724 26.796 47.058 24.48 45.794L16.07 48L18.322 39.782C16.934 37.378 16.202 34.65 16.204 31.854C16.208 23.112 23.322 16 32.066 16C36.308 16 40.292 17.652 43.286 20.65C46.28 23.646 47.93 27.63 47.928 31.868C47.924 40.61 40.808 47.724 32.066 47.724ZM32 0C14.326 0 0 14.326 0 32C0 49.672 14.326 64 32 64C49.672 64 64 49.672 64 32C64 14.326 49.672 0 32 0Z" fill="#67D449"/>
</g>
<defs>
<clipPath id="clip0_353_3">
<rect width="64" height="64" fill="white"/>
</clipPath>
</defs>
</svg>
